<svg id="svg" version="1.1" xmlns="http://www.w3.org/2000/svg" xmlns:xlink="http://www.w3.org/1999/xlink" width="400" height="400" viewBox="0, 0, 400,400"><g id="svgg"><path id="path0" d="M179.000 0.451 C 177.020 0.648,174.140 0.914,172.601 1.042 C 171.061 1.169,169.710 1.421,169.599 1.602 C 169.487 1.782,168.407 1.975,167.198 2.029 C 165.989 2.084,164.805 2.277,164.566 2.458 C 164.327 2.640,163.285 2.821,162.249 2.860 C 161.214 2.899,160.273 3.082,160.160 3.265 C 160.046 3.449,159.233 3.600,158.353 3.600 C 157.388 3.600,156.851 3.759,157.000 4.000 C 157.151 4.244,156.537 4.400,155.424 4.400 C 154.421 4.400,153.600 4.546,153.600 4.725 C 153.600 4.904,152.745 5.094,151.700 5.147 C 150.655 5.200,149.740 5.413,149.667 5.621 C 149.593 5.830,148.908 6.000,148.143 6.000 C 147.318 6.000,146.853 6.163,147.000 6.400 C 147.150 6.642,146.596 6.800,145.600 6.800 C 144.604 6.800,144.050 6.958,144.200 7.200 C 144.349 7.441,143.815 7.600,142.857 7.600 C 141.982 7.600,141.207 7.769,141.133 7.976 C 141.060 8.184,140.550 8.434,140.000 8.534 C 137.972 8.901,134.408 10.064,134.180 10.433 C 134.050 10.642,133.760 10.699,133.534 10.559 C 133.151 10.322,132.478 10.558,130.000 11.798 C 129.450 12.073,128.685 12.247,128.300 12.184 C 127.915 12.122,127.600 12.235,127.600 12.435 C 127.600 12.636,127.255 12.800,126.833 12.800 C 126.412 12.800,126.007 12.964,125.933 13.163 C 125.860 13.363,125.440 13.588,125.000 13.663 C 124.560 13.739,124.110 13.890,124.000 14.000 C 123.350 14.650,121.932 15.232,122.223 14.730 C 122.391 14.438,122.095 14.589,121.565 15.064 C 121.034 15.540,120.150 15.990,119.600 16.064 C 119.050 16.139,118.510 16.290,118.400 16.400 C 117.953 16.847,114.688 18.400,114.196 18.400 C 113.905 18.400,113.607 18.578,113.533 18.797 C 113.460 19.015,112.918 19.233,112.329 19.281 C 111.740 19.330,111.345 19.512,111.452 19.685 C 111.560 19.858,111.356 20.000,111.000 20.000 C 110.613 20.000,110.467 20.185,110.638 20.462 C 110.797 20.719,110.750 20.816,110.530 20.680 C 110.314 20.547,109.116 20.975,107.868 21.632 C 106.621 22.289,105.600 22.703,105.600 22.552 C 105.600 22.401,105.285 22.629,104.900 23.059 C 104.515 23.489,103.550 24.143,102.755 24.513 C 101.960 24.883,101.083 25.459,100.806 25.793 C 100.529 26.127,99.964 26.400,99.551 26.400 C 99.138 26.400,98.800 26.591,98.800 26.824 C 98.800 27.057,98.622 27.137,98.403 27.002 C 98.185 26.867,97.150 27.349,96.103 28.073 C 95.057 28.797,94.065 29.347,93.900 29.295 C 93.735 29.243,93.600 29.358,93.600 29.551 C 93.600 29.745,93.060 30.127,92.400 30.400 C 91.740 30.673,91.200 31.055,91.200 31.249 C 91.200 31.442,90.829 31.600,90.376 31.600 C 89.923 31.600,89.664 31.780,89.800 32.000 C 89.936 32.220,89.767 32.400,89.424 32.400 C 89.081 32.400,88.800 32.580,88.800 32.800 C 88.800 33.020,88.530 33.200,88.200 33.200 C 87.870 33.200,87.600 33.380,87.600 33.600 C 87.600 33.820,87.330 34.000,87.000 34.000 C 86.670 34.000,86.400 34.180,86.400 34.400 C 86.400 34.620,86.157 34.800,85.859 34.800 C 85.562 34.800,84.794 35.295,84.152 35.900 C 83.511 36.505,82.500 37.252,81.907 37.560 C 81.313 37.868,80.903 38.243,80.996 38.393 C 81.088 38.542,80.550 38.906,79.800 39.200 C 79.050 39.494,78.529 39.885,78.642 40.068 C 78.755 40.250,78.556 40.400,78.200 40.400 C 77.844 40.400,77.664 40.580,77.800 40.800 C 77.936 41.020,77.767 41.200,77.424 41.200 C 77.081 41.200,76.800 41.380,76.800 41.600 C 76.800 41.820,76.530 42.000,76.200 42.000 C 75.870 42.000,75.600 42.168,75.600 42.373 C 75.600 42.578,75.240 42.860,74.800 43.000 C 74.360 43.140,74.000 43.542,74.000 43.894 C 74.000 44.245,73.891 44.424,73.757 44.291 C 73.509 44.042,73.065 44.344,71.423 45.876 C 70.907 46.357,70.376 46.642,70.242 46.509 C 70.109 46.376,70.000 46.577,70.000 46.957 C 70.000 47.337,69.853 47.556,69.673 47.445 C 69.493 47.334,69.093 47.593,68.785 48.021 C 68.476 48.450,67.983 48.800,67.688 48.800 C 67.394 48.800,67.264 48.980,67.400 49.200 C 67.536 49.420,67.412 49.601,67.124 49.602 C 66.508 49.604,64.000 51.867,64.000 52.420 C 64.000 52.629,63.719 52.800,63.376 52.800 C 63.033 52.800,62.864 52.980,63.000 53.200 C 63.136 53.420,62.956 53.600,62.600 53.600 C 62.244 53.600,62.064 53.780,62.200 54.000 C 62.336 54.220,62.167 54.400,61.824 54.400 C 61.481 54.400,61.200 54.554,61.200 54.742 C 61.200 55.188,55.188 61.200,54.742 61.200 C 54.554 61.200,54.400 61.481,54.400 61.824 C 54.400 62.167,54.220 62.336,54.000 62.200 C 53.780 62.064,53.600 62.244,53.600 62.600 C 53.600 62.956,53.465 63.165,53.300 63.066 C 52.909 62.829,51.974 63.840,52.291 64.157 C 52.424 64.291,52.315 64.400,52.047 64.400 C 51.476 64.400,49.631 66.402,49.613 67.042 C 49.606 67.285,49.025 67.960,48.323 68.542 C 47.620 69.124,47.183 69.600,47.351 69.600 C 47.520 69.600,47.387 69.870,47.057 70.200 C 46.727 70.530,46.286 70.800,46.077 70.800 C 45.868 70.800,45.473 71.340,45.200 72.000 C 44.927 72.660,44.515 73.200,44.285 73.200 C 44.055 73.200,43.980 73.314,44.119 73.453 C 44.258 73.592,43.847 74.196,43.205 74.795 C 42.563 75.395,41.985 76.129,41.919 76.427 C 41.749 77.201,41.053 77.948,40.700 77.734 C 40.535 77.635,40.400 77.844,40.400 78.200 C 40.400 78.556,40.250 78.755,40.068 78.642 C 39.885 78.529,39.494 79.050,39.200 79.800 C 38.906 80.550,38.535 81.083,38.376 80.985 C 38.218 80.887,37.804 81.406,37.456 82.138 C 37.109 82.871,36.369 83.812,35.812 84.230 C 35.255 84.648,34.800 85.331,34.800 85.748 C 34.800 86.165,34.484 86.797,34.097 87.153 C 33.711 87.509,33.144 88.289,32.837 88.886 C 32.530 89.484,32.127 89.878,31.940 89.763 C 31.753 89.647,31.600 89.857,31.600 90.229 C 31.600 90.602,31.277 91.197,30.882 91.553 C 30.486 91.909,29.565 93.415,28.835 94.900 C 28.105 96.385,27.348 97.600,27.154 97.600 C 26.959 97.600,26.800 97.857,26.800 98.171 C 26.800 98.486,26.575 98.988,26.300 99.287 C 25.518 100.137,24.800 101.530,24.800 102.195 C 24.800 102.528,24.620 102.800,24.400 102.800 C 24.180 102.800,24.000 103.160,24.000 103.600 C 24.000 104.040,23.820 104.400,23.600 104.400 C 23.380 104.400,23.200 104.720,23.200 105.112 C 23.200 105.503,22.840 106.083,22.400 106.400 C 21.960 106.717,21.600 107.297,21.600 107.688 C 21.600 108.080,21.420 108.400,21.200 108.400 C 20.980 108.400,20.800 108.771,20.800 109.224 C 20.800 109.677,20.620 109.936,20.400 109.800 C 20.180 109.664,20.000 109.828,20.000 110.164 C 20.000 110.501,19.640 111.417,19.200 112.200 C 18.760 112.983,18.400 113.979,18.400 114.412 C 18.400 114.845,18.220 115.200,18.000 115.200 C 17.780 115.200,17.600 115.616,17.600 116.125 C 17.600 116.633,17.233 117.443,16.784 117.925 C 16.336 118.406,16.087 118.800,16.230 118.800 C 16.374 118.800,16.201 119.244,15.846 119.786 C 15.491 120.328,15.200 121.138,15.200 121.586 C 15.200 122.034,15.020 122.400,14.800 122.400 C 14.580 122.400,14.400 122.861,14.400 123.424 C 14.400 124.056,14.234 124.345,13.967 124.180 C 13.709 124.020,13.567 124.212,13.614 124.656 C 13.746 125.905,13.617 126.458,13.249 126.230 C 13.055 126.111,12.799 126.505,12.678 127.106 C 12.557 127.708,12.287 128.650,12.077 129.200 C 11.867 129.750,11.678 130.337,11.656 130.504 C 11.634 130.671,11.335 131.352,10.992 132.016 C 10.648 132.680,10.466 133.383,10.586 133.578 C 10.707 133.772,10.629 133.992,10.414 134.066 C 10.199 134.140,9.968 134.560,9.900 135.000 C 9.832 135.440,9.611 136.067,9.407 136.393 C 8.972 137.091,8.863 137.565,8.552 140.100 C 8.424 141.145,8.158 142.000,7.960 142.000 C 7.762 142.000,7.600 142.551,7.600 143.224 C 7.600 143.937,7.433 144.344,7.200 144.200 C 6.955 144.049,6.800 144.670,6.800 145.800 C 6.800 146.930,6.645 147.551,6.400 147.400 C 6.168 147.256,6.000 147.651,6.000 148.343 C 6.000 148.998,5.830 149.593,5.621 149.667 C 5.413 149.740,5.200 150.655,5.147 151.700 C 5.094 152.745,4.904 153.600,4.725 153.600 C 4.546 153.600,4.400 154.421,4.400 155.424 C 4.400 156.537,4.244 157.151,4.000 157.000 C 3.756 156.849,3.600 157.455,3.600 158.553 C 3.600 159.543,3.420 160.464,3.200 160.600 C 2.980 160.736,2.800 161.647,2.800 162.624 C 2.800 163.601,2.620 164.400,2.400 164.400 C 2.178 164.400,2.000 165.467,2.000 166.800 C 2.000 168.120,1.843 169.200,1.651 169.200 C 1.458 169.200,1.275 170.478,1.243 172.041 C 1.211 173.603,0.972 175.268,0.713 175.741 C 0.048 176.951,-0.214 212.823,0.393 219.600 C 0.639 222.350,0.935 225.860,1.051 227.400 C 1.167 228.940,1.428 230.371,1.631 230.580 C 1.834 230.789,2.000 231.878,2.000 233.000 C 2.000 234.122,2.177 235.217,2.393 235.433 C 2.610 235.650,2.819 236.684,2.859 237.730 C 2.899 238.777,3.082 239.727,3.265 239.840 C 3.449 239.954,3.600 240.767,3.600 241.647 C 3.600 242.612,3.759 243.149,4.000 243.000 C 4.244 242.849,4.400 243.463,4.400 244.576 C 4.400 245.579,4.546 246.400,4.725 246.400 C 4.904 246.400,5.094 247.255,5.147 248.300 C 5.200 249.345,5.413 250.260,5.621 250.333 C 5.830 250.407,6.000 251.092,6.000 251.857 C 6.000 252.682,6.163 253.147,6.400 253.000 C 6.642 252.850,6.800 253.404,6.800 254.400 C 6.800 255.396,6.958 255.950,7.200 255.800 C 7.441 255.651,7.600 256.185,7.600 257.143 C 7.600 258.018,7.769 258.793,7.976 258.867 C 8.184 258.940,8.434 259.450,8.534 260.000 C 8.901 262.028,10.064 265.592,10.433 265.820 C 10.642 265.950,10.699 266.240,10.559 266.466 C 10.320 266.853,10.604 267.653,11.812 270.000 C 12.095 270.550,12.351 271.180,12.381 271.400 C 12.530 272.503,12.956 273.822,13.222 274.000 C 13.386 274.110,13.583 274.560,13.660 275.000 C 13.737 275.440,13.890 275.890,14.000 276.000 C 14.650 276.650,15.232 278.068,14.730 277.777 C 14.438 277.609,14.605 277.917,15.100 278.461 C 15.595 279.006,16.000 279.920,16.000 280.492 C 16.000 281.065,16.135 281.593,16.300 281.667 C 16.720 281.853,18.400 285.163,18.400 285.804 C 18.400 286.095,18.578 286.393,18.797 286.467 C 19.015 286.540,19.233 287.082,19.281 287.671 C 19.330 288.260,19.512 288.655,19.685 288.548 C 19.858 288.440,20.000 288.644,20.000 289.000 C 20.000 289.387,20.185 289.533,20.462 289.362 C 20.719 289.203,20.816 289.250,20.680 289.470 C 20.547 289.686,20.975 290.884,21.632 292.132 C 22.289 293.379,22.703 294.400,22.552 294.400 C 22.401 294.400,22.629 294.715,23.059 295.100 C 23.489 295.485,24.143 296.450,24.513 297.245 C 24.883 298.040,25.459 298.917,25.793 299.194 C 26.127 299.471,26.400 300.036,26.400 300.449 C 26.400 300.862,26.591 301.200,26.824 301.200 C 27.057 301.200,27.137 301.378,27.002 301.597 C 26.867 301.815,27.349 302.850,28.073 303.897 C 28.797 304.943,29.347 305.935,29.295 306.100 C 29.243 306.265,29.358 306.400,29.551 306.400 C 29.745 306.400,30.127 306.940,30.400 307.600 C 30.673 308.260,31.055 308.800,31.249 308.800 C 31.442 308.800,31.600 309.171,31.600 309.624 C 31.600 310.077,31.780 310.336,32.000 310.200 C 32.220 310.064,32.400 310.233,32.400 310.576 C 32.400 310.919,32.580 311.200,32.800 311.200 C 33.020 311.200,33.200 311.470,33.200 311.800 C 33.200 312.130,33.380 312.400,33.600 312.400 C 33.820 312.400,34.000 312.670,34.000 313.000 C 34.000 313.330,34.180 313.600,34.400 313.600 C 34.620 313.600,34.800 313.843,34.800 314.141 C 34.800 314.438,35.295 315.206,35.900 315.848 C 36.505 316.489,37.255 317.505,37.567 318.106 C 37.879 318.707,38.227 319.106,38.341 318.993 C 38.454 318.880,38.867 319.465,39.260 320.293 C 39.652 321.122,39.979 321.652,39.986 321.471 C 40.006 320.988,41.200 322.267,41.200 322.771 C 41.200 323.007,41.380 323.200,41.600 323.200 C 41.820 323.200,42.000 323.388,42.000 323.617 C 42.000 324.056,42.138 324.248,43.899 326.256 C 44.504 326.946,45.270 327.918,45.600 328.414 C 45.930 328.910,46.785 329.914,47.500 330.645 C 48.215 331.375,48.800 332.170,48.800 332.410 C 48.800 332.651,48.980 332.736,49.200 332.600 C 49.420 332.464,49.600 332.596,49.600 332.894 C 49.600 333.392,53.454 337.487,57.652 341.449 C 58.614 342.356,60.390 344.182,61.600 345.506 C 62.810 346.831,63.935 347.833,64.100 347.734 C 64.265 347.634,64.400 347.752,64.400 347.996 C 64.400 348.516,66.417 350.369,67.003 350.387 C 67.224 350.394,67.984 351.030,68.690 351.800 C 69.397 352.570,70.161 353.200,70.388 353.200 C 70.614 353.200,70.800 353.448,70.800 353.751 C 70.800 354.055,71.340 354.527,72.000 354.800 C 72.660 355.073,73.200 355.485,73.200 355.715 C 73.200 355.945,73.304 356.029,73.431 355.903 C 73.558 355.776,74.150 356.183,74.748 356.808 C 75.345 357.433,76.089 358.002,76.401 358.072 C 77.200 358.252,77.950 358.943,77.734 359.300 C 77.635 359.465,77.844 359.600,78.200 359.600 C 78.556 359.600,78.755 359.750,78.642 359.932 C 78.529 360.115,79.050 360.506,79.800 360.800 C 80.550 361.094,81.083 361.465,80.985 361.624 C 80.887 361.782,81.406 362.196,82.138 362.544 C 82.871 362.891,83.812 363.631,84.230 364.188 C 84.648 364.745,85.273 365.200,85.620 365.200 C 85.966 365.200,86.598 365.515,87.025 365.900 C 87.451 366.285,88.289 366.852,88.886 367.160 C 89.484 367.468,89.878 367.873,89.763 368.060 C 89.647 368.247,89.857 368.400,90.229 368.400 C 90.602 368.400,91.197 368.718,91.553 369.107 C 91.909 369.496,93.055 370.244,94.100 370.770 C 95.145 371.296,96.000 371.888,96.000 372.086 C 96.000 372.285,96.165 372.345,96.368 372.220 C 96.570 372.095,97.007 372.264,97.339 372.596 C 97.671 372.928,98.123 373.200,98.343 373.200 C 98.563 373.200,98.988 373.425,99.287 373.700 C 100.137 374.482,101.530 375.200,102.195 375.200 C 102.528 375.200,102.800 375.380,102.800 375.600 C 102.800 375.820,103.160 376.000,103.600 376.000 C 104.040 376.000,104.400 376.180,104.400 376.400 C 104.400 376.620,104.720 376.800,105.112 376.800 C 105.503 376.800,106.083 377.160,106.400 377.600 C 106.717 378.040,107.297 378.400,107.688 378.400 C 108.080 378.400,108.400 378.580,108.400 378.800 C 108.400 379.020,108.771 379.200,109.224 379.200 C 109.677 379.200,109.936 379.380,109.800 379.600 C 109.664 379.820,109.828 380.000,110.164 380.000 C 110.501 380.000,111.417 380.360,112.200 380.800 C 112.983 381.240,113.979 381.600,114.412 381.600 C 114.845 381.600,115.200 381.780,115.200 382.000 C 115.200 382.220,115.560 382.400,116.000 382.400 C 116.440 382.400,116.800 382.580,116.800 382.800 C 116.800 383.020,117.160 383.200,117.600 383.200 C 118.040 383.200,118.400 383.391,118.400 383.624 C 118.400 383.857,118.553 383.952,118.741 383.836 C 118.929 383.720,119.424 383.884,119.841 384.200 C 120.258 384.516,121.005 384.780,121.500 384.787 C 121.995 384.794,122.400 384.980,122.400 385.200 C 122.400 385.420,122.861 385.600,123.424 385.600 C 124.004 385.600,124.340 385.773,124.200 386.000 C 124.055 386.234,124.470 386.400,125.200 386.400 C 125.886 386.400,126.350 386.558,126.230 386.751 C 126.111 386.945,126.505 387.201,127.106 387.322 C 127.708 387.443,128.650 387.713,129.200 387.923 C 129.750 388.133,130.337 388.322,130.504 388.344 C 130.671 388.366,131.352 388.665,132.016 389.008 C 132.680 389.352,133.383 389.534,133.578 389.414 C 133.772 389.293,133.992 389.371,134.066 389.586 C 134.140 389.801,134.560 390.032,135.000 390.100 C 135.440 390.168,136.070 390.393,136.400 390.600 C 137.130 391.059,137.654 391.183,140.100 391.475 C 141.145 391.600,142.000 391.859,142.000 392.051 C 142.000 392.243,142.551 392.400,143.224 392.400 C 143.937 392.400,144.344 392.567,144.200 392.800 C 144.049 393.045,144.670 393.200,145.800 393.200 C 146.930 393.200,147.551 393.355,147.400 393.600 C 147.256 393.832,147.651 394.000,148.343 394.000 C 148.998 394.000,149.593 394.170,149.667 394.379 C 149.740 394.587,150.655 394.800,151.700 394.853 C 152.745 394.906,153.600 395.096,153.600 395.275 C 153.600 395.454,154.421 395.600,155.424 395.600 C 156.537 395.600,157.151 395.756,157.000 396.000 C 156.849 396.244,157.455 396.400,158.553 396.400 C 159.543 396.400,160.464 396.580,160.600 396.800 C 160.736 397.020,161.647 397.200,162.624 397.200 C 163.601 397.200,164.400 397.380,164.400 397.600 C 164.400 397.822,165.467 398.000,166.800 398.000 C 168.133 398.000,169.200 398.178,169.200 398.400 C 169.200 398.630,170.440 398.800,172.120 398.800 C 173.867 398.800,175.234 398.994,175.523 399.283 C 176.199 399.959,212.680 400.228,219.600 399.608 C 222.350 399.362,225.860 399.065,227.400 398.949 C 228.940 398.833,230.371 398.572,230.580 398.369 C 230.789 398.166,231.878 398.000,233.000 398.000 C 234.122 398.000,235.217 397.823,235.433 397.607 C 235.650 397.390,236.684 397.181,237.730 397.141 C 238.777 397.101,239.727 396.918,239.840 396.735 C 239.954 396.551,240.767 396.400,241.647 396.400 C 242.612 396.400,243.149 396.241,243.000 396.000 C 242.849 395.756,243.463 395.600,244.576 395.600 C 245.579 395.600,246.400 395.454,246.400 395.275 C 246.400 395.096,247.255 394.906,248.300 394.853 C 249.345 394.800,250.260 394.587,250.333 394.379 C 250.407 394.170,251.092 394.000,251.857 394.000 C 252.682 394.000,253.147 393.837,253.000 393.600 C 252.850 393.358,253.404 393.200,254.400 393.200 C 255.396 393.200,255.950 393.042,255.800 392.800 C 255.651 392.558,256.196 392.400,257.176 392.400 C 258.069 392.400,258.800 392.220,258.800 392.000 C 258.800 391.780,259.115 391.598,259.500 391.595 C 260.452 391.588,265.234 390.070,265.810 389.592 C 266.065 389.380,266.392 389.326,266.537 389.471 C 266.794 389.728,267.749 389.363,270.200 388.070 C 270.860 387.721,271.490 387.466,271.600 387.501 C 271.981 387.623,273.801 387.075,274.000 386.778 C 274.110 386.614,274.560 386.417,275.000 386.340 C 275.440 386.263,275.890 386.110,276.000 386.000 C 276.547 385.453,278.059 384.781,277.800 385.200 C 277.621 385.490,277.827 385.465,278.358 385.133 C 278.821 384.844,279.200 384.471,279.200 384.304 C 279.200 384.137,279.725 384.000,280.367 384.000 C 281.008 384.000,281.593 383.865,281.667 383.700 C 281.853 383.280,285.163 381.600,285.804 381.600 C 286.095 381.600,286.393 381.422,286.467 381.203 C 286.540 380.985,287.082 380.767,287.671 380.719 C 288.260 380.670,288.655 380.488,288.548 380.315 C 288.440 380.142,288.644 380.000,289.000 380.000 C 289.387 380.000,289.533 379.815,289.362 379.538 C 289.203 379.281,289.250 379.184,289.470 379.320 C 289.686 379.453,290.884 379.025,292.132 378.368 C 293.379 377.711,294.400 377.297,294.400 377.448 C 294.400 377.599,294.715 377.371,295.100 376.941 C 295.485 376.511,296.450 375.857,297.245 375.487 C 298.040 375.117,298.917 374.541,299.194 374.207 C 299.471 373.873,300.036 373.600,300.449 373.600 C 300.862 373.600,301.200 373.426,301.200 373.213 C 301.200 372.999,301.468 372.928,301.797 373.054 C 302.137 373.185,302.499 373.008,302.639 372.644 C 302.773 372.292,303.043 372.103,303.237 372.223 C 303.431 372.343,304.075 371.992,304.668 371.442 C 305.261 370.892,305.893 370.534,306.073 370.645 C 306.253 370.756,306.400 370.678,306.400 370.472 C 306.400 370.266,306.940 369.873,307.600 369.600 C 308.260 369.327,308.800 368.945,308.800 368.751 C 308.800 368.558,309.171 368.400,309.624 368.400 C 310.077 368.400,310.336 368.220,310.200 368.000 C 310.064 367.780,310.233 367.600,310.576 367.600 C 310.919 367.600,311.200 367.420,311.200 367.200 C 311.200 366.980,311.470 366.800,311.800 366.800 C 312.130 366.800,312.400 366.620,312.400 366.400 C 312.400 366.180,312.670 366.000,313.000 366.000 C 313.330 366.000,313.600 365.820,313.600 365.600 C 313.600 365.380,313.843 365.200,314.141 365.200 C 314.438 365.200,315.206 364.705,315.848 364.100 C 316.489 363.495,317.505 362.745,318.106 362.433 C 318.707 362.121,319.106 361.773,318.993 361.659 C 318.880 361.546,319.465 361.133,320.293 360.740 C 321.122 360.348,321.652 360.021,321.471 360.014 C 320.988 359.994,322.267 358.800,322.771 358.800 C 323.007 358.800,323.200 358.620,323.200 358.400 C 323.200 358.180,323.388 358.000,323.617 358.000 C 324.035 358.000,324.243 357.848,326.364 356.000 C 326.995 355.450,327.918 354.730,328.414 354.400 C 328.910 354.070,329.914 353.215,330.645 352.500 C 331.375 351.785,332.170 351.200,332.410 351.200 C 332.651 351.200,332.736 351.020,332.600 350.800 C 332.464 350.580,332.596 350.400,332.894 350.400 C 333.392 350.400,337.487 346.546,341.449 342.348 C 342.356 341.386,344.182 339.610,345.506 338.400 C 346.831 337.190,347.833 336.065,347.734 335.900 C 347.634 335.735,347.752 335.600,347.996 335.600 C 348.516 335.600,350.369 333.583,350.387 332.997 C 350.394 332.776,351.030 332.016,351.800 331.310 C 352.570 330.603,353.200 329.839,353.200 329.612 C 353.200 329.386,353.448 329.200,353.751 329.200 C 354.055 329.200,354.527 328.660,354.800 328.000 C 355.073 327.340,355.485 326.800,355.715 326.800 C 355.945 326.800,356.036 326.702,355.916 326.583 C 355.797 326.464,356.312 325.735,357.061 324.964 C 357.810 324.192,358.352 323.435,358.264 323.281 C 358.177 323.126,358.532 322.589,359.053 322.086 C 359.574 321.583,360.006 321.313,360.014 321.486 C 360.021 321.659,360.348 321.122,360.740 320.293 C 361.133 319.465,361.553 318.886,361.674 319.008 C 361.796 319.129,362.183 318.621,362.535 317.879 C 362.888 317.137,363.631 316.188,364.188 315.770 C 364.745 315.352,365.200 314.727,365.200 314.380 C 365.200 314.034,365.515 313.402,365.900 312.975 C 366.285 312.549,366.852 311.711,367.160 311.114 C 367.468 310.516,367.873 310.122,368.060 310.237 C 368.247 310.353,368.400 310.143,368.400 309.771 C 368.400 309.398,368.718 308.803,369.107 308.447 C 369.496 308.091,370.244 306.945,370.770 305.900 C 371.296 304.855,371.888 304.000,372.086 304.000 C 372.285 304.000,372.345 303.835,372.220 303.632 C 372.095 303.430,372.264 302.993,372.596 302.661 C 372.928 302.329,373.200 301.877,373.200 301.657 C 373.200 301.437,373.425 301.012,373.700 300.713 C 374.482 299.863,375.200 298.470,375.200 297.805 C 375.200 297.472,375.380 297.200,375.600 297.200 C 375.820 297.200,376.000 296.840,376.000 296.400 C 376.000 295.960,376.180 295.600,376.400 295.600 C 376.620 295.600,376.800 295.280,376.800 294.888 C 376.800 294.497,377.160 293.917,377.600 293.600 C 378.040 293.283,378.400 292.703,378.400 292.312 C 378.400 291.920,378.580 291.600,378.800 291.600 C 379.020 291.600,379.200 291.229,379.200 290.776 C 379.200 290.323,379.380 290.064,379.600 290.200 C 379.820 290.336,380.000 290.172,380.000 289.836 C 380.000 289.499,380.360 288.583,380.800 287.800 C 381.240 287.017,381.600 286.021,381.600 285.588 C 381.600 285.155,381.780 284.800,382.000 284.800 C 382.220 284.800,382.400 284.440,382.400 284.000 C 382.400 283.560,382.580 283.200,382.800 283.200 C 383.020 283.200,383.200 282.840,383.200 282.400 C 383.200 281.960,383.391 281.600,383.624 281.600 C 383.857 281.600,383.952 281.447,383.836 281.259 C 383.720 281.071,383.884 280.576,384.200 280.159 C 384.516 279.742,384.780 278.995,384.787 278.500 C 384.794 278.005,384.980 277.600,385.200 277.600 C 385.420 277.600,385.600 277.139,385.600 276.576 C 385.600 275.944,385.766 275.655,386.033 275.820 C 386.291 275.980,386.433 275.788,386.386 275.344 C 386.254 274.095,386.383 273.542,386.751 273.770 C 386.945 273.889,387.201 273.495,387.322 272.894 C 387.443 272.292,387.748 271.260,387.999 270.600 C 388.250 269.940,388.440 269.353,388.420 269.296 C 388.400 269.239,388.665 268.648,389.008 267.984 C 389.352 267.320,389.534 266.617,389.414 266.422 C 389.293 266.228,389.371 266.008,389.586 265.934 C 389.801 265.860,390.032 265.440,390.100 265.000 C 390.168 264.560,390.393 263.930,390.600 263.600 C 391.059 262.870,391.183 262.346,391.475 259.900 C 391.600 258.855,391.859 258.000,392.051 258.000 C 392.243 258.000,392.400 257.449,392.400 256.776 C 392.400 256.063,392.567 255.656,392.800 255.800 C 393.045 255.951,393.200 255.330,393.200 254.200 C 393.200 253.070,393.355 252.449,393.600 252.600 C 393.832 252.744,394.000 252.349,394.000 251.657 C 394.000 251.002,394.170 250.407,394.379 250.333 C 394.587 250.260,394.800 249.345,394.853 248.300 C 394.906 247.255,395.096 246.400,395.275 246.400 C 395.454 246.400,395.600 245.579,395.600 244.576 C 395.600 243.463,395.756 242.849,396.000 243.000 C 396.244 243.151,396.400 242.545,396.400 241.447 C 396.400 240.457,396.580 239.536,396.800 239.400 C 397.020 239.264,397.200 238.353,397.200 237.376 C 397.200 236.399,397.380 235.600,397.600 235.600 C 397.822 235.600,398.000 234.533,398.000 233.200 C 398.000 231.867,398.178 230.800,398.400 230.800 C 398.630 230.800,398.800 229.560,398.800 227.880 C 398.800 226.133,398.994 224.766,399.283 224.477 C 399.959 223.801,400.228 187.320,399.608 180.400 C 399.362 177.650,399.065 174.140,398.949 172.600 C 398.833 171.060,398.572 169.629,398.369 169.420 C 398.166 169.211,398.000 168.122,398.000 167.000 C 398.000 165.878,397.823 164.783,397.607 164.567 C 397.390 164.350,397.181 163.316,397.141 162.270 C 397.101 161.223,396.918 160.273,396.735 160.160 C 396.551 160.046,396.400 159.233,396.400 158.353 C 396.400 157.388,396.241 156.851,396.000 157.000 C 395.756 157.151,395.600 156.537,395.600 155.424 C 395.600 154.421,395.454 153.600,395.275 153.600 C 395.096 153.600,394.906 152.745,394.853 151.700 C 394.800 150.655,394.587 149.740,394.379 149.667 C 394.170 149.593,394.000 148.908,394.000 148.143 C 394.000 147.318,393.837 146.853,393.600 147.000 C 393.358 147.150,393.200 146.596,393.200 145.600 C 393.200 144.604,393.042 144.050,392.800 144.200 C 392.559 144.349,392.400 143.815,392.400 142.857 C 392.400 141.982,392.231 141.207,392.024 141.133 C 391.816 141.060,391.566 140.550,391.466 140.000 C 391.099 137.972,389.936 134.408,389.567 134.180 C 389.358 134.050,389.301 133.760,389.441 133.534 C 389.678 133.151,389.442 132.478,388.202 130.000 C 387.927 129.450,387.753 128.685,387.816 128.300 C 387.878 127.915,387.765 127.600,387.565 127.600 C 387.364 127.600,387.200 127.255,387.200 126.833 C 387.200 126.412,387.036 126.007,386.837 125.933 C 386.637 125.860,386.412 125.440,386.337 125.000 C 386.261 124.560,386.110 124.110,386.000 124.000 C 385.350 123.350,384.768 121.932,385.270 122.223 C 385.562 122.391,385.395 122.083,384.900 121.539 C 384.405 120.994,384.000 120.080,384.000 119.508 C 384.000 118.935,383.865 118.407,383.700 118.333 C 383.280 118.147,381.600 114.837,381.600 114.196 C 381.600 113.905,381.422 113.607,381.203 113.533 C 380.985 113.460,380.767 112.918,380.719 112.329 C 380.670 111.740,380.488 111.345,380.315 111.452 C 380.142 111.560,380.000 111.356,380.000 111.000 C 380.000 110.613,379.815 110.467,379.538 110.638 C 379.281 110.797,379.184 110.750,379.320 110.530 C 379.453 110.314,379.025 109.116,378.368 107.868 C 377.711 106.621,377.297 105.600,377.448 105.600 C 377.599 105.600,377.371 105.285,376.941 104.900 C 376.511 104.515,375.857 103.550,375.487 102.755 C 375.117 101.960,374.541 101.083,374.207 100.806 C 373.873 100.529,373.600 99.964,373.600 99.551 C 373.600 99.138,373.426 98.800,373.213 98.800 C 372.999 98.800,372.928 98.532,373.054 98.203 C 373.185 97.863,373.008 97.501,372.644 97.361 C 372.292 97.227,372.103 96.957,372.223 96.763 C 372.343 96.569,371.992 95.925,371.442 95.332 C 370.892 94.739,370.534 94.107,370.645 93.927 C 370.756 93.747,370.678 93.600,370.472 93.600 C 370.266 93.600,369.873 93.060,369.600 92.400 C 369.327 91.740,368.945 91.200,368.751 91.200 C 368.558 91.200,368.400 90.829,368.400 90.376 C 368.400 89.923,368.220 89.664,368.000 89.800 C 367.780 89.936,367.600 89.767,367.600 89.424 C 367.600 89.081,367.420 88.800,367.200 88.800 C 366.980 88.800,366.800 88.530,366.800 88.200 C 366.800 87.870,366.620 87.600,366.400 87.600 C 366.180 87.600,366.000 87.330,366.000 87.000 C 366.000 86.670,365.820 86.400,365.600 86.400 C 365.380 86.400,365.200 86.157,365.200 85.859 C 365.200 85.562,364.705 84.794,364.100 84.152 C 363.495 83.511,362.748 82.500,362.440 81.907 C 362.132 81.313,361.757 80.903,361.607 80.996 C 361.458 81.088,361.094 80.550,360.800 79.800 C 360.506 79.050,360.115 78.529,359.932 78.642 C 359.750 78.755,359.600 78.556,359.600 78.200 C 359.600 77.844,359.420 77.664,359.200 77.800 C 358.980 77.936,358.800 77.767,358.800 77.424 C 358.800 77.081,358.620 76.800,358.400 76.800 C 358.180 76.800,358.000 76.530,358.000 76.200 C 358.000 75.870,357.832 75.600,357.627 75.600 C 357.422 75.600,357.140 75.240,357.000 74.800 C 356.860 74.360,356.458 74.000,356.106 74.000 C 355.755 74.000,355.576 73.891,355.709 73.757 C 355.843 73.624,355.779 73.309,355.569 73.057 C 353.989 71.173,353.600 70.636,353.600 70.339 C 353.600 70.152,353.319 70.000,352.976 70.000 C 352.633 70.000,352.444 69.853,352.555 69.673 C 352.666 69.493,352.407 69.093,351.979 68.785 C 351.550 68.476,351.200 67.983,351.200 67.688 C 351.200 67.394,351.020 67.264,350.800 67.400 C 350.580 67.536,350.399 67.412,350.398 67.124 C 350.395 66.468,346.947 62.786,346.632 63.102 C 346.504 63.229,346.400 63.103,346.400 62.821 C 346.400 62.539,345.647 61.654,344.726 60.854 C 342.606 59.012,340.988 57.394,339.146 55.274 C 338.346 54.353,337.480 53.600,337.222 53.600 C 336.964 53.600,336.835 53.465,336.934 53.300 C 337.171 52.909,336.160 51.974,335.843 52.291 C 335.709 52.424,335.600 52.315,335.600 52.047 C 335.600 51.476,333.598 49.631,332.958 49.613 C 332.715 49.606,332.040 49.025,331.458 48.323 C 330.876 47.620,330.400 47.183,330.400 47.351 C 330.400 47.520,330.130 47.387,329.800 47.057 C 329.470 46.727,329.200 46.286,329.200 46.077 C 329.200 45.868,328.660 45.473,328.000 45.200 C 327.340 44.927,326.800 44.515,326.800 44.285 C 326.800 44.055,326.692 43.975,326.560 44.107 C 326.428 44.239,325.698 43.724,324.937 42.964 C 324.177 42.203,323.430 41.652,323.277 41.738 C 323.125 41.824,322.589 41.468,322.086 40.947 C 321.583 40.426,321.313 39.994,321.486 39.986 C 321.659 39.979,321.122 39.652,320.293 39.260 C 319.465 38.867,318.886 38.447,319.008 38.326 C 319.129 38.204,318.621 37.817,317.879 37.465 C 317.137 37.112,316.188 36.369,315.770 35.812 C 315.352 35.255,314.669 34.800,314.252 34.800 C 313.835 34.800,313.203 34.484,312.847 34.097 C 312.491 33.711,311.711 33.144,311.114 32.837 C 310.516 32.530,310.122 32.127,310.237 31.940 C 310.353 31.753,310.143 31.600,309.771 31.600 C 309.398 31.600,308.803 31.277,308.447 30.882 C 308.091 30.486,306.585 29.565,305.100 28.835 C 303.615 28.105,302.400 27.348,302.400 27.154 C 302.400 26.959,302.143 26.800,301.829 26.800 C 301.514 26.800,301.012 26.575,300.713 26.300 C 299.863 25.518,298.470 24.800,297.805 24.800 C 297.472 24.800,297.200 24.620,297.200 24.400 C 297.200 24.180,296.840 24.000,296.400 24.000 C 295.960 24.000,295.600 23.820,295.600 23.600 C 295.600 23.380,295.280 23.200,294.888 23.200 C 294.497 23.200,293.917 22.840,293.600 22.400 C 293.283 21.960,292.703 21.600,292.312 21.600 C 291.920 21.600,291.600 21.420,291.600 21.200 C 291.600 20.980,291.229 20.800,290.776 20.800 C 290.323 20.800,290.064 20.620,290.200 20.400 C 290.336 20.180,290.172 20.000,289.836 20.000 C 289.499 20.000,288.583 19.640,287.800 19.200 C 287.017 18.760,286.021 18.400,285.588 18.400 C 285.155 18.400,284.800 18.220,284.800 18.000 C 284.800 17.780,284.384 17.600,283.875 17.600 C 283.367 17.600,282.557 17.233,282.075 16.784 C 281.594 16.336,281.200 16.087,281.200 16.230 C 281.200 16.374,280.756 16.201,280.214 15.846 C 279.672 15.491,278.862 15.200,278.414 15.200 C 277.966 15.200,277.600 15.020,277.600 14.800 C 277.600 14.580,277.139 14.400,276.576 14.400 C 275.944 14.400,275.655 14.234,275.820 13.967 C 275.980 13.709,275.788 13.567,275.344 13.614 C 274.095 13.746,273.542 13.617,273.770 13.249 C 273.889 13.055,273.495 12.799,272.894 12.678 C 272.292 12.557,271.260 12.252,270.600 12.001 C 269.940 11.750,269.353 11.560,269.296 11.580 C 269.239 11.600,268.648 11.335,267.984 10.992 C 267.320 10.648,266.617 10.466,266.422 10.586 C 266.228 10.707,266.008 10.629,265.934 10.414 C 265.860 10.199,265.440 9.968,265.000 9.900 C 264.560 9.832,263.933 9.611,263.607 9.407 C 262.909 8.972,262.435 8.863,259.900 8.552 C 258.855 8.424,258.000 8.158,258.000 7.960 C 258.000 7.762,257.449 7.600,256.776 7.600 C 256.063 7.600,255.656 7.433,255.800 7.200 C 255.951 6.955,255.330 6.800,254.200 6.800 C 253.070 6.800,252.449 6.645,252.600 6.400 C 252.744 6.168,252.349 6.000,251.657 6.000 C 251.002 6.000,250.407 5.830,250.333 5.621 C 250.260 5.413,249.345 5.200,248.300 5.147 C 247.255 5.094,246.400 4.904,246.400 4.725 C 246.400 4.546,245.579 4.400,244.576 4.400 C 243.463 4.400,242.849 4.244,243.000 4.000 C 243.151 3.756,242.545 3.600,241.447 3.600 C 240.457 3.600,239.536 3.420,239.400 3.200 C 239.264 2.980,238.353 2.800,237.376 2.800 C 236.399 2.800,235.600 2.620,235.600 2.400 C 235.600 2.178,234.533 2.000,233.200 2.000 C 231.880 2.000,230.800 1.843,230.800 1.651 C 230.800 1.458,229.522 1.275,227.959 1.243 C 226.397 1.211,224.732 0.971,224.259 0.709 C 223.197 0.122,184.523 -0.099,179.000 0.451 M215.104 104.100 C 215.325 104.375,216.441 107.030,217.584 110.000 C 220.026 116.348,220.138 116.633,220.800 118.200 C 221.079 118.860,221.463 119.805,221.654 120.300 C 222.095 121.446,222.676 122.900,223.254 124.300 C 223.503 124.905,223.863 125.805,224.054 126.300 C 224.244 126.795,224.580 127.650,224.800 128.200 C 225.020 128.750,225.380 129.650,225.600 130.200 C 225.820 130.750,226.156 131.605,226.346 132.100 C 226.537 132.595,226.897 133.495,227.146 134.100 C 227.396 134.705,227.767 135.605,227.970 136.100 C 228.174 136.595,230.085 141.500,232.218 147.000 C 234.350 152.500,236.433 157.763,236.847 158.696 C 237.261 159.628,237.600 160.539,237.600 160.721 C 237.600 160.902,237.960 161.795,238.400 162.706 C 238.840 163.616,239.200 164.552,239.200 164.786 C 239.200 165.020,239.359 165.523,239.553 165.905 C 239.748 166.287,240.084 167.050,240.300 167.600 C 240.516 168.150,240.921 169.140,241.200 169.800 C 241.479 170.460,241.839 171.360,242.000 171.800 C 242.161 172.240,242.497 173.095,242.746 173.700 C 243.324 175.100,243.905 176.554,244.346 177.700 C 244.855 179.021,245.436 180.466,245.915 181.600 C 246.148 182.150,247.896 186.650,249.800 191.600 C 251.704 196.550,253.452 201.050,253.685 201.600 C 253.917 202.150,254.263 203.005,254.454 203.500 C 254.644 203.995,255.004 204.895,255.254 205.500 C 255.503 206.105,255.887 207.050,256.107 207.600 C 256.327 208.150,256.687 209.050,256.907 209.600 C 257.127 210.150,257.439 210.960,257.600 211.400 C 257.922 212.279,258.449 213.608,259.146 215.300 C 259.396 215.905,259.780 216.850,260.000 217.400 C 260.220 217.950,260.604 218.895,260.854 219.500 C 261.103 220.105,261.463 221.005,261.654 221.500 C 261.844 221.995,262.164 222.805,262.365 223.300 C 262.566 223.795,265.369 230.950,268.594 239.200 C 275.033 255.671,274.900 255.331,275.546 256.900 C 275.796 257.505,276.156 258.405,276.346 258.900 C 276.537 259.395,276.921 260.340,277.200 261.000 C 277.479 261.660,277.863 262.605,278.054 263.100 C 278.244 263.595,278.556 264.405,278.746 264.900 C 278.937 265.395,279.297 266.295,279.546 266.900 C 280.200 268.485,280.539 269.339,282.260 273.733 C 284.939 280.576,288.288 283.109,297.400 285.187 C 300.932 285.992,300.840 285.821,300.712 291.359 L 300.600 296.200 255.800 296.310 C 231.160 296.370,210.595 296.322,210.100 296.202 C 209.232 295.992,209.200 295.823,209.200 291.421 C 209.200 286.011,209.428 285.600,212.428 285.600 C 220.504 285.600,227.941 282.557,229.904 278.448 C 230.816 276.539,230.753 270.002,229.790 266.600 C 229.416 265.280,229.020 263.703,228.909 263.095 C 228.798 262.487,228.549 261.892,228.354 261.771 C 228.159 261.651,228.000 261.201,228.000 260.771 C 228.000 260.341,227.841 259.677,227.647 259.295 C 227.452 258.913,227.116 258.150,226.900 257.600 C 226.211 255.846,225.517 254.221,225.153 253.505 C 224.959 253.123,224.800 252.459,224.800 252.029 C 224.800 251.599,224.620 251.136,224.400 251.000 C 224.180 250.864,224.000 250.401,224.000 249.971 C 224.000 249.541,223.841 248.877,223.647 248.495 C 223.159 247.536,222.627 246.210,221.604 243.400 C 221.123 242.080,220.569 240.595,220.373 240.100 L 220.017 239.200 185.271 239.200 L 150.525 239.200 148.015 245.500 C 146.634 248.965,145.166 252.563,144.752 253.496 C 144.339 254.428,144.000 255.339,144.000 255.521 C 144.000 255.702,143.640 256.595,143.200 257.506 C 142.760 258.416,142.400 259.404,142.400 259.701 C 142.400 259.997,142.248 260.411,142.062 260.620 C 141.877 260.829,141.309 262.080,140.800 263.400 C 140.291 264.720,139.723 265.971,139.538 266.180 C 139.352 266.389,139.200 266.963,139.200 267.456 C 139.200 267.949,139.040 268.452,138.844 268.573 C 138.649 268.694,138.387 269.379,138.264 270.096 C 138.140 270.813,137.850 272.480,137.618 273.800 C 136.451 280.457,137.937 282.100,146.712 283.845 C 158.122 286.115,157.186 285.431,157.194 291.492 C 157.200 295.822,157.167 295.993,156.300 296.203 C 155.805 296.323,142.890 296.371,127.600 296.310 L 99.800 296.200 99.688 291.359 C 99.562 285.897,99.411 286.202,102.927 284.808 C 110.134 281.950,114.731 276.911,117.712 268.600 C 118.264 267.060,119.382 264.090,120.195 262.000 C 121.008 259.910,121.812 257.840,121.983 257.400 C 122.512 256.035,123.072 254.650,123.600 253.400 C 124.513 251.238,124.774 250.573,127.200 244.200 C 129.391 238.444,129.409 238.399,130.000 237.000 C 130.674 235.405,130.626 235.528,134.607 225.200 C 136.515 220.250,138.419 215.437,138.838 214.504 C 139.257 213.572,139.600 212.624,139.600 212.399 C 139.600 212.174,139.759 211.677,139.953 211.295 C 140.148 210.913,140.484 210.150,140.700 209.600 C 140.916 209.050,141.297 208.105,141.546 207.500 C 141.796 206.895,142.204 205.905,142.454 205.300 C 143.040 203.877,143.333 203.112,144.407 200.200 C 144.894 198.880,145.610 197.080,145.998 196.200 C 146.387 195.320,147.009 193.700,147.381 192.600 C 147.754 191.500,148.296 190.060,148.587 189.400 C 148.877 188.740,150.318 185.050,151.787 181.200 C 153.257 177.350,154.626 173.795,154.830 173.300 C 155.033 172.805,155.356 171.995,155.546 171.500 C 155.737 171.005,156.121 170.060,156.400 169.400 C 156.679 168.740,157.063 167.795,157.254 167.300 C 157.444 166.805,157.804 165.905,158.054 165.300 C 158.554 164.087,159.100 162.726,159.700 161.200 C 159.916 160.650,160.252 159.887,160.447 159.505 C 160.641 159.123,160.800 158.536,160.800 158.200 C 160.800 157.864,160.965 157.277,161.167 156.895 C 161.929 155.455,163.200 152.393,163.200 151.999 C 163.200 151.774,163.369 151.277,163.575 150.895 C 163.781 150.513,165.688 145.700,167.812 140.200 C 169.937 134.700,172.018 129.437,172.437 128.504 C 173.398 126.370,173.397 125.273,172.437 123.338 C 171.452 121.354,170.000 118.064,170.000 117.816 C 170.000 117.710,169.570 116.673,169.044 115.512 C 168.518 114.350,167.501 111.960,166.783 110.200 C 166.066 108.440,165.351 106.820,165.195 106.600 C 164.736 105.955,164.392 104.141,164.674 103.859 C 165.206 103.328,214.673 103.564,215.104 104.100 M182.265 155.330 C 181.421 157.568,180.386 160.163,179.965 161.096 C 179.544 162.028,179.200 162.976,179.200 163.201 C 179.200 163.426,179.041 163.923,178.847 164.305 C 178.652 164.687,178.316 165.450,178.100 166.000 C 177.884 166.550,177.479 167.540,177.200 168.200 C 176.921 168.860,176.561 169.760,176.400 170.200 C 176.239 170.640,175.903 171.495,175.654 172.100 C 175.404 172.705,174.996 173.695,174.746 174.300 C 174.497 174.905,174.113 175.850,173.893 176.400 C 173.673 176.950,173.313 177.850,173.093 178.400 C 172.873 178.950,172.561 179.760,172.400 180.200 C 172.239 180.640,171.921 181.450,171.694 182.000 C 171.467 182.550,171.064 183.630,170.800 184.400 C 170.536 185.170,170.160 186.160,169.965 186.600 C 169.048 188.668,165.606 197.638,165.373 198.564 C 165.229 199.138,164.951 199.706,164.756 199.827 C 164.560 199.948,164.400 200.309,164.400 200.628 C 164.400 200.947,164.022 202.062,163.560 203.104 C 163.098 204.147,162.558 205.405,162.360 205.900 C 162.162 206.395,161.838 207.205,161.639 207.700 C 161.440 208.195,160.872 209.680,160.377 211.000 C 159.881 212.320,159.323 213.571,159.138 213.780 C 158.952 213.989,158.800 214.403,158.800 214.699 C 158.800 214.996,158.440 215.984,158.000 216.894 C 157.560 217.805,157.200 218.696,157.200 218.875 C 157.200 219.054,169.344 219.200,184.187 219.200 C 209.711 219.200,211.162 219.162,210.945 218.500 C 210.665 217.650,209.713 215.418,208.956 213.839 C 208.650 213.200,208.400 212.523,208.400 212.334 C 208.400 212.146,208.057 211.228,207.638 210.296 C 207.219 209.363,204.054 201.400,200.606 192.600 C 197.158 183.800,194.146 176.150,193.915 175.600 C 193.683 175.050,193.361 174.240,193.200 173.800 C 193.039 173.360,192.703 172.505,192.454 171.900 C 192.204 171.295,191.844 170.395,191.654 169.900 C 191.463 169.405,191.079 168.460,190.800 167.800 C 190.521 167.140,190.137 166.195,189.946 165.700 C 189.323 164.080,188.891 163.022,188.274 161.600 C 187.939 160.830,186.917 158.310,186.002 156.000 C 185.087 153.690,184.218 151.678,184.069 151.530 C 183.921 151.381,183.109 153.091,182.265 155.330 " stroke="none" fill="#dcdcdc" fill-rule="evenodd"></path><path id="path1" d="M99.600 25.800 C 99.050 26.114,98.780 26.372,99.000 26.372 C 99.220 26.372,99.850 26.114,100.400 25.800 C 100.950 25.486,101.220 25.228,101.000 25.228 C 100.780 25.228,100.150 25.486,99.600 25.800 M373.628 99.000 C 373.628 99.220,373.886 99.850,374.200 100.400 C 374.514 100.950,374.772 101.220,374.772 101.000 C 374.772 100.780,374.514 100.150,374.200 99.600 C 373.886 99.050,373.628 98.780,373.628 99.000 M165.200 104.358 C 165.200 104.669,166.260 107.297,168.240 111.900 C 168.548 112.615,169.049 113.785,169.353 114.500 C 169.656 115.215,170.215 116.520,170.593 117.400 C 170.972 118.280,171.420 119.360,171.590 119.800 C 171.760 120.240,172.317 121.470,172.829 122.533 C 173.879 124.715,174.012 126.624,173.226 128.277 C 172.933 128.895,172.537 129.805,172.346 130.300 C 172.156 130.795,171.838 131.605,171.640 132.100 C 171.443 132.595,171.064 133.630,170.800 134.400 C 170.536 135.170,170.167 136.160,169.981 136.600 C 169.447 137.863,168.323 140.750,164.607 150.400 C 162.701 155.350,160.950 159.850,160.717 160.400 C 160.484 160.950,160.137 161.805,159.946 162.300 C 159.608 163.180,159.167 164.290,158.437 166.100 C 158.238 166.595,157.141 169.430,156.000 172.400 C 153.528 178.835,153.509 178.883,152.440 181.296 C 151.978 182.338,151.600 183.324,151.600 183.486 C 151.600 183.853,145.804 198.782,144.763 201.096 C 144.343 202.028,144.000 202.939,144.000 203.121 C 144.000 203.302,143.640 204.195,143.200 205.106 C 142.760 206.016,142.400 206.952,142.400 207.186 C 142.400 207.420,142.241 207.923,142.047 208.305 C 141.662 209.061,141.439 209.598,139.640 214.100 C 139.443 214.595,139.061 215.630,138.793 216.400 C 138.525 217.170,138.051 218.381,137.738 219.091 C 137.426 219.802,136.722 221.602,136.174 223.091 C 135.626 224.581,135.019 226.160,134.826 226.600 C 134.633 227.040,133.095 231.000,131.408 235.400 C 129.721 239.800,128.150 243.850,127.917 244.400 C 127.684 244.950,127.361 245.760,127.200 246.200 C 127.039 246.640,126.703 247.495,126.454 248.100 C 126.204 248.705,125.844 249.605,125.654 250.100 C 125.212 251.246,124.631 252.700,124.054 254.100 C 123.209 256.149,122.880 256.995,121.993 259.400 C 121.506 260.720,120.769 262.563,120.354 263.496 C 119.939 264.428,119.600 265.376,119.600 265.601 C 119.600 265.826,119.433 266.323,119.230 266.705 C 119.026 267.087,118.380 268.660,117.794 270.200 C 114.790 278.099,108.878 283.824,101.300 286.175 C 100.433 286.444,100.400 286.627,100.400 291.227 L 100.400 296.000 128.200 296.000 L 156.000 296.000 156.000 291.218 L 156.000 286.436 154.500 286.200 C 153.675 286.071,152.370 285.806,151.600 285.612 C 150.830 285.418,149.120 285.050,147.800 284.794 C 140.081 283.296,138.888 282.775,137.417 280.266 C 135.989 277.828,136.029 276.137,137.655 270.200 C 138.298 267.850,138.804 266.405,139.647 264.504 C 140.061 263.572,140.400 262.537,140.400 262.204 C 140.400 261.872,140.580 261.600,140.800 261.600 C 141.020 261.600,141.200 261.328,141.200 260.996 C 141.200 260.663,141.578 259.538,142.040 258.496 C 142.502 257.453,143.042 256.195,143.240 255.700 C 144.180 253.351,144.520 252.547,144.847 251.905 C 145.041 251.523,145.200 251.020,145.200 250.786 C 145.200 250.552,145.560 249.616,146.000 248.706 C 146.440 247.795,146.800 246.902,146.800 246.721 C 146.800 246.539,147.139 245.628,147.554 244.696 C 147.969 243.763,148.703 241.982,149.185 240.739 C 150.338 237.765,147.034 238.012,185.838 238.005 C 223.276 237.999,221.200 237.864,221.200 240.308 C 221.200 240.773,221.359 241.251,221.552 241.370 C 221.746 241.490,222.000 241.996,222.116 242.494 C 222.451 243.925,224.649 249.982,224.938 250.272 C 225.082 250.416,225.200 250.938,225.200 251.433 C 225.200 251.928,225.335 252.393,225.500 252.467 C 226.511 252.916,230.418 265.337,231.235 270.699 C 232.621 279.791,226.325 286.000,215.720 286.000 C 215.016 286.000,213.531 286.195,212.420 286.433 L 210.400 286.866 210.400 291.435 L 210.400 296.003 255.100 295.902 L 299.800 295.800 299.800 291.210 C 299.800 286.656,299.792 286.617,298.800 286.335 C 285.819 282.639,284.645 281.728,281.064 272.567 C 279.781 269.285,278.543 266.150,278.312 265.600 C 277.822 264.431,277.234 262.966,276.746 261.700 C 276.556 261.205,276.244 260.395,276.054 259.900 C 275.521 258.516,274.957 257.118,274.400 255.800 C 274.121 255.140,273.737 254.195,273.546 253.700 C 272.873 251.951,272.303 250.592,271.953 249.905 C 271.759 249.523,271.600 249.026,271.600 248.801 C 271.600 248.576,271.254 247.628,270.831 246.696 C 270.409 245.763,268.324 240.500,266.198 235.000 C 264.072 229.500,261.988 224.237,261.566 223.304 C 261.145 222.372,260.800 221.461,260.800 221.279 C 260.800 221.098,260.440 220.205,260.000 219.294 C 259.560 218.384,259.200 217.484,259.200 217.294 C 259.200 217.105,258.840 216.205,258.400 215.294 C 257.960 214.384,257.600 213.448,257.600 213.214 C 257.600 212.980,257.441 212.477,257.247 212.095 C 257.052 211.713,256.716 210.950,256.500 210.400 C 255.900 208.874,255.354 207.513,254.854 206.300 C 254.604 205.695,254.196 204.705,253.946 204.100 C 253.697 203.495,253.337 202.595,253.146 202.100 C 252.956 201.605,252.633 200.795,252.429 200.300 C 252.226 199.805,251.312 197.420,250.399 195.000 C 249.487 192.580,248.465 189.970,248.129 189.200 C 246.924 186.437,246.352 184.991,245.600 182.800 C 245.336 182.030,244.957 180.995,244.760 180.500 C 244.562 180.005,244.220 179.150,244.000 178.600 C 243.780 178.050,243.420 177.150,243.200 176.600 C 242.980 176.050,242.620 175.150,242.400 174.600 C 242.180 174.050,241.844 173.195,241.654 172.700 C 241.463 172.205,241.103 171.305,240.854 170.700 C 240.431 169.675,240.159 169.001,239.241 166.700 C 239.043 166.205,238.593 165.143,238.241 164.340 C 237.888 163.536,237.600 162.754,237.600 162.600 C 237.600 162.446,237.339 161.754,237.019 161.060 C 236.700 160.367,235.065 156.200,233.387 151.800 C 231.708 147.400,229.989 143.037,229.567 142.104 C 229.145 141.172,228.800 140.261,228.800 140.079 C 228.800 139.898,228.440 139.005,228.000 138.094 C 227.560 137.184,227.200 136.284,227.200 136.094 C 227.200 135.905,226.840 135.005,226.400 134.094 C 225.960 133.184,225.600 132.284,225.600 132.094 C 225.600 131.905,225.240 131.005,224.800 130.094 C 224.360 129.184,224.000 128.248,224.000 128.014 C 224.000 127.780,223.841 127.277,223.647 126.895 C 223.185 125.988,222.143 123.489,221.146 120.900 C 220.956 120.405,220.620 119.550,220.400 119.000 C 220.180 118.450,219.820 117.550,219.600 117.000 C 219.380 116.450,219.033 115.595,218.829 115.100 C 218.625 114.605,217.887 112.670,217.189 110.800 C 216.492 108.930,215.574 106.635,215.150 105.700 L 214.380 104.000 189.790 104.000 C 175.581 104.000,165.200 104.151,165.200 104.358 M186.001 154.300 C 186.929 156.665,188.029 159.363,188.445 160.296 C 188.860 161.228,189.200 162.139,189.200 162.321 C 189.200 162.502,189.560 163.395,190.000 164.306 C 190.440 165.216,190.800 166.240,190.800 166.581 C 190.800 166.921,190.980 167.200,191.200 167.200 C 191.420 167.200,191.600 167.472,191.600 167.805 C 191.600 168.138,191.759 168.723,191.953 169.105 C 192.148 169.487,192.508 170.295,192.753 170.900 C 192.999 171.505,193.401 172.495,193.647 173.100 C 193.892 173.705,194.252 174.513,194.447 174.895 C 194.641 175.277,194.800 175.774,194.800 175.999 C 194.800 176.224,195.144 177.172,195.564 178.104 C 195.984 179.037,197.621 183.130,199.201 187.200 C 200.782 191.270,202.347 195.230,202.678 196.000 C 203.010 196.770,203.419 197.760,203.587 198.200 C 203.971 199.205,204.560 200.678,205.146 202.100 C 205.396 202.705,205.804 203.695,206.054 204.300 C 206.303 204.905,206.687 205.850,206.907 206.400 C 207.127 206.950,207.463 207.805,207.654 208.300 C 207.844 208.795,208.156 209.605,208.346 210.100 C 208.537 210.595,208.873 211.450,209.093 212.000 C 209.313 212.550,209.673 213.450,209.893 214.000 C 210.672 215.948,211.298 217.409,211.647 218.095 C 211.841 218.477,212.000 218.972,212.000 219.195 C 212.000 219.465,202.706 219.600,184.173 219.600 L 156.346 219.600 156.598 218.700 C 156.737 218.205,157.019 217.395,157.225 216.900 C 157.431 216.405,157.780 215.550,158.000 215.000 C 158.220 214.450,158.580 213.550,158.800 213.000 C 159.020 212.450,159.356 211.595,159.546 211.100 C 160.057 209.775,160.637 208.332,161.116 207.200 C 161.348 206.650,163.819 200.350,166.607 193.200 C 169.395 186.050,172.019 179.437,172.438 178.504 C 172.857 177.572,173.200 176.624,173.200 176.399 C 173.200 176.174,173.359 175.677,173.553 175.295 C 173.748 174.913,174.084 174.150,174.300 173.600 C 174.516 173.050,174.897 172.105,175.146 171.500 C 175.724 170.100,176.305 168.646,176.746 167.500 C 177.262 166.160,177.841 164.723,178.317 163.600 C 178.549 163.050,179.463 160.710,180.347 158.400 C 184.176 148.390,183.790 148.670,186.001 154.300 M25.228 299.000 C 25.228 299.220,25.486 299.850,25.800 300.400 C 26.114 300.950,26.372 301.220,26.372 301.000 C 26.372 300.780,26.114 300.150,25.800 299.600 C 25.486 299.050,25.228 298.780,25.228 299.000 M299.600 374.200 C 299.050 374.514,298.780 374.772,299.000 374.772 C 299.220 374.772,299.850 374.514,300.400 374.200 C 300.950 373.886,301.220 373.628,301.000 373.628 C 300.780 373.628,300.150 373.886,299.600 374.200 " stroke="none" fill="#fcfcfc" fill-rule="evenodd"></path><path id="path2" d="M150.538 238.706 C 150.284 238.868,165.802 238.952,185.022 238.894 L 219.968 238.787 220.568 239.894 C 220.898 240.502,221.175 240.815,221.184 240.589 C 221.193 240.363,220.920 239.778,220.577 239.289 L 219.955 238.400 185.477 238.406 C 166.515 238.409,150.792 238.544,150.538 238.706 M230.600 273.200 C 230.600 275.866,230.717 277.632,230.860 277.124 C 231.003 276.616,231.120 274.850,231.120 273.200 C 231.120 271.550,231.003 269.784,230.860 269.276 C 230.717 268.768,230.600 270.534,230.600 273.200 M137.022 273.422 C 136.872 274.225,136.828 274.962,136.926 275.060 C 137.024 275.157,137.227 274.581,137.378 273.778 C 137.528 272.975,137.572 272.238,137.474 272.140 C 137.376 272.043,137.173 272.619,137.022 273.422 M114.600 275.600 C 114.259 276.260,114.069 276.800,114.179 276.800 C 114.289 276.800,114.659 276.260,115.000 275.600 C 115.341 274.940,115.531 274.400,115.421 274.400 C 115.311 274.400,114.941 274.940,114.600 275.600 M111.381 279.700 L 109.800 281.400 111.500 279.819 C 113.081 278.348,113.384 278.000,113.081 278.000 C 113.016 278.000,112.251 278.765,111.381 279.700 M284.764 279.735 C 285.349 280.463,287.600 282.177,287.600 281.894 C 287.600 281.806,286.835 281.126,285.900 280.383 C 284.965 279.640,284.454 279.348,284.764 279.735 M227.800 281.468 C 226.920 282.257,226.560 282.716,227.000 282.488 C 227.741 282.104,229.951 279.979,229.570 280.017 C 229.476 280.026,228.680 280.679,227.800 281.468 M144.800 284.000 C 146.168 284.438,147.219 284.438,146.200 284.000 C 145.760 283.811,145.040 283.662,144.600 283.668 C 143.957 283.677,143.996 283.743,144.800 284.000 M148.800 284.800 C 150.168 285.238,151.219 285.238,150.200 284.800 C 149.760 284.611,149.040 284.462,148.600 284.468 C 147.957 284.477,147.996 284.543,148.800 284.800 M152.600 285.600 C 153.040 285.789,153.760 285.938,154.200 285.932 C 154.843 285.923,154.804 285.857,154.000 285.600 C 152.632 285.162,151.581 285.162,152.600 285.600 M215.800 285.600 C 214.722 285.874,214.702 285.906,215.600 285.913 C 216.150 285.917,217.050 285.776,217.600 285.600 C 218.944 285.169,217.492 285.169,215.800 285.600 M156.312 289.937 C 156.486 295.939,156.666 296.655,156.730 291.600 C 156.762 289.070,156.656 286.792,156.494 286.537 C 156.332 286.282,156.250 287.812,156.312 289.937 M210.080 286.480 C 209.752 286.808,209.625 288.423,209.680 291.580 L 209.761 296.200 209.980 291.417 C 210.195 286.736,210.221 286.628,211.200 286.357 C 212.037 286.125,212.066 286.073,211.380 286.040 C 210.929 286.018,210.344 286.216,210.080 286.480 " stroke="none" fill="#ececec" fill-rule="evenodd"></path><path id="path3" d="M164.667 103.867 C 164.520 104.013,164.403 104.328,164.406 104.567 C 164.410 104.826,164.539 104.800,164.728 104.503 C 164.973 104.118,170.652 103.982,190.022 103.900 L 215.000 103.794 189.967 103.697 C 176.198 103.644,164.813 103.720,164.667 103.867 M151.267 182.380 C 151.033 183.051,150.927 183.600,151.031 183.600 C 151.301 183.600,152.056 181.522,151.857 181.324 C 151.767 181.233,151.501 181.708,151.267 182.380 M163.513 202.181 C 163.142 203.181,162.917 204.000,163.014 204.000 C 163.293 204.000,164.431 201.094,164.303 200.709 C 164.239 200.518,163.884 201.180,163.513 202.181 M170.500 219.500 C 177.925 219.561,190.075 219.561,197.500 219.500 C 204.925 219.439,198.850 219.389,184.000 219.389 C 169.150 219.389,163.075 219.439,170.500 219.500 M163.000 239.094 C 195.413 239.369,220.306 239.372,220.138 239.100 C 220.036 238.935,204.348 238.842,185.276 238.894 C 166.204 238.946,156.180 239.036,163.000 239.094 M136.983 275.375 C 136.836 276.351,136.870 277.611,137.058 278.174 C 137.315 278.942,137.406 278.500,137.422 276.399 C 137.449 273.145,137.351 272.919,136.983 275.375 M228.175 280.900 L 227.000 282.200 228.300 281.025 C 229.015 280.379,229.600 279.794,229.600 279.725 C 229.600 279.416,229.270 279.688,228.175 280.900 M218.100 285.076 C 218.485 285.176,219.115 285.176,219.500 285.076 C 219.885 284.975,219.570 284.893,218.800 284.893 C 218.030 284.893,217.715 284.975,218.100 285.076 M209.829 286.229 C 209.318 286.739,209.216 287.734,209.286 291.529 L 209.371 296.200 209.499 291.624 C 209.649 286.272,209.756 286.083,212.733 285.895 L 215.000 285.751 212.729 285.676 C 211.118 285.622,210.274 285.783,209.829 286.229 M299.200 285.957 C 300.189 286.232,300.201 286.291,300.312 291.116 L 300.425 295.997 255.312 296.101 L 210.200 296.205 255.400 296.203 L 300.600 296.200 300.713 291.457 C 300.833 286.422,300.589 285.568,299.051 285.640 C 298.300 285.675,298.317 285.712,299.200 285.957 M156.712 289.937 C 156.886 295.939,157.066 296.655,157.130 291.600 C 157.162 289.070,157.056 286.792,156.894 286.537 C 156.732 286.282,156.650 287.812,156.712 289.937 M99.781 291.299 L 99.800 296.200 128.000 296.204 L 156.200 296.208 128.112 296.101 L 100.025 295.995 99.893 291.197 L 99.761 286.399 99.781 291.299 " stroke="none" fill="#e4e4e4" fill-rule="evenodd"></path><path id="path4" d="M164.830 104.400 C 164.828 104.976,165.957 107.266,165.986 106.746 C 165.994 106.606,165.737 105.886,165.416 105.146 C 165.094 104.406,164.831 104.070,164.830 104.400 M185.400 238.294 L 219.800 238.392 220.500 239.240 C 220.885 239.707,221.200 239.917,221.200 239.706 C 221.200 237.968,221.783 237.994,185.369 238.098 L 151.000 238.195 185.400 238.294 M269.818 244.500 C 269.968 244.995,270.255 245.576,270.456 245.791 C 270.657 246.006,270.619 245.601,270.372 244.891 C 269.865 243.438,269.397 243.108,269.818 244.500 M231.320 273.600 C 231.320 274.810,231.395 275.305,231.487 274.700 C 231.578 274.095,231.578 273.105,231.487 272.500 C 231.395 271.895,231.320 272.390,231.320 273.600 M136.438 276.400 C 136.424 277.610,136.560 278.833,136.740 279.117 C 136.924 279.406,136.996 278.611,136.904 277.317 C 136.679 274.158,136.468 273.742,136.438 276.400 M100.174 286.524 C 100.063 286.813,100.030 289.108,100.101 291.624 L 100.229 296.200 100.314 291.333 C 100.375 287.881,100.545 286.408,100.900 286.265 C 101.292 286.107,101.289 286.056,100.887 286.032 C 100.606 286.014,100.284 286.236,100.174 286.524 M210.173 286.926 C 210.062 287.215,210.030 289.420,210.101 291.826 L 210.230 296.200 210.315 291.529 C 210.389 287.460,210.490 286.835,211.100 286.676 C 211.756 286.504,211.755 286.490,211.087 286.446 C 210.696 286.421,210.284 286.637,210.173 286.926 M156.153 291.400 C 156.153 294.040,156.218 295.068,156.297 293.684 C 156.375 292.301,156.374 290.141,156.295 288.884 C 156.216 287.628,156.152 288.760,156.153 291.400 M299.998 291.482 C 299.889 293.947,299.942 295.821,300.115 295.647 C 300.288 295.473,300.377 293.456,300.312 291.165 L 300.196 287.000 299.998 291.482 " stroke="none" fill="#f4f4f4" fill-rule="evenodd"></path></g></svg>